<svg width="555" height="344" viewBox="0 0 555 344" fill="none" xmlns="http://www.w3.org/2000/svg">
<path d="M275.003 164.252C213.251 183.167 182.614 156.556 169.264 139.379C168.379 138.24 167.831 136.805 167.6 135.382C156.613 67.5611 92.5423 122.742 155.649 143.167C156.825 143.547 157.998 144.183 158.937 144.985C202.384 182.11 247.366 176.231 275.003 164.252Z" fill="#EF9D39" stroke="#EF9D39" stroke-width="0.719481"/>
<path d="M294.428 148.907L287.306 142.168C277.097 152.691 235.667 173.025 187.945 152.454C224.627 174.799 273.417 166.287 294.428 148.907Z" fill="#3E867A" stroke="#3E867A" stroke-width="0.719481"/>
<path d="M305.873 147.078L294.784 148.644L287.23 142.169L286.391 129.026C286.325 127.99 286.635 126.965 287.263 126.139L304.886 102.95C305.91 101.602 307.871 101.426 309.119 102.57C310.239 103.597 310.367 105.317 309.412 106.498L298.371 120.154C297.893 120.745 298.084 121.626 298.764 121.966C299.254 122.211 299.849 122.089 300.203 121.671L311.661 108.156C312.704 106.926 314.591 106.894 315.676 108.087C316.567 109.067 316.606 110.551 315.767 111.576L305.158 124.544C304.669 125.14 304.753 126.019 305.346 126.512C305.945 127.012 306.838 126.927 307.332 126.323L317.611 113.759C318.576 112.58 320.331 112.451 321.458 113.475C322.511 114.433 322.624 116.051 321.712 117.145L311.934 128.878C311.291 129.65 311.426 130.803 312.23 131.406C313.004 131.987 314.101 131.832 314.684 131.06L323.983 118.753C324.975 117.439 326.899 117.306 328.063 118.47C329.056 119.463 329.126 121.051 328.224 122.127L308.578 145.576C307.893 146.393 306.929 146.928 305.873 147.078Z" fill="#3E867A" stroke="#3E867A" stroke-width="0.719481"/>
<path d="M256.793 109.432C256.793 103.671 261.464 99 267.225 99C272.987 99 277.658 103.671 277.658 109.432V144.346C277.658 144.81 277.568 145.27 277.261 145.618C276.485 146.501 274.245 148.39 267.945 151.162C264.153 152.831 261.576 153.668 259.864 154.078C258.057 154.511 256.793 153.147 256.793 151.289V109.432Z" fill="#3E867A"/>
<path d="M186.508 109.402C186.508 103.657 191.165 99 196.91 99C202.679 99 207.346 103.694 207.312 109.462L207.013 161.235C207.013 161.235 204.855 161.249 196.221 157.099C191.643 154.899 189.189 153.67 187.894 153.002C187.022 152.553 186.508 151.664 186.508 150.684V109.402Z" fill="#3E867A"/>
<path d="M186.508 209.8C186.508 215.562 191.179 220.232 196.94 220.232C202.702 220.232 207.373 215.562 207.373 209.8V175.485C207.373 174.273 206.614 173.191 205.475 172.779L190.365 167.308C188.489 166.629 186.508 168.019 186.508 170.014V209.8Z" fill="#EF9D39"/>
<path d="M278.602 209.188C278.602 214.95 273.931 219.62 268.169 219.62C262.407 219.62 257.737 214.95 257.737 209.188V169.257L273.868 163.889C276.197 163.114 278.602 164.848 278.602 167.302V209.188Z" fill="#EF9D39"/>
<path d="M95.9498 216H63.6198V128.534H95.9071C104.819 128.534 112.492 130.285 118.927 133.787C125.39 137.261 130.372 142.272 133.875 148.82C137.377 155.34 139.128 163.142 139.128 172.224C139.128 181.335 137.377 189.165 133.875 195.714C130.401 202.262 125.433 207.288 118.969 210.79C112.506 214.263 104.833 216 95.9498 216ZM84.7603 197.977H95.1383C100.036 197.977 104.178 197.152 107.566 195.5C110.983 193.82 113.56 191.101 115.297 187.343C117.062 183.556 117.944 178.517 117.944 172.224C117.944 165.932 117.062 160.921 115.297 157.191C113.531 153.433 110.926 150.728 107.481 149.076C104.064 147.397 99.8504 146.557 94.8394 146.557H84.7603V197.977Z" fill="#EF9D39"/>
<path d="M389.215 128.534H410.313V184.951C410.313 191.471 408.761 197.152 405.657 201.992C402.554 206.804 398.226 210.533 392.674 213.181C387.122 215.801 380.673 217.11 373.327 217.11C365.896 217.11 359.405 215.801 353.852 213.181C348.3 210.533 343.987 206.804 340.912 201.992C337.837 197.152 336.299 191.471 336.299 184.951V128.534H357.44V183.115C357.44 186.133 358.095 188.823 359.405 191.187C360.743 193.55 362.608 195.4 364.999 196.739C367.391 198.077 370.167 198.746 373.327 198.746C376.488 198.746 379.25 198.077 381.613 196.739C384.004 195.4 385.869 193.55 387.207 191.187C388.546 188.823 389.215 186.133 389.215 183.115V128.534Z" fill="#3E867A"/>
<path d="M424.081 216V128.534H460.553C467.102 128.534 472.583 129.459 476.996 131.31C481.438 133.161 484.769 135.752 486.99 139.083C489.239 142.414 490.364 146.272 490.364 150.657C490.364 153.988 489.666 156.963 488.271 159.583C486.876 162.174 484.954 164.323 482.505 166.032C480.057 167.74 477.224 168.936 474.006 169.619V170.473C477.537 170.644 480.797 171.598 483.787 173.335C486.805 175.071 489.225 177.492 491.047 180.595C492.869 183.67 493.78 187.314 493.78 191.528C493.78 196.226 492.584 200.426 490.193 204.127C487.801 207.8 484.342 210.704 479.815 212.84C475.288 214.947 469.793 216 463.329 216H424.081ZM445.221 198.959H458.29C462.874 198.959 466.248 198.091 468.412 196.354C470.604 194.617 471.7 192.197 471.7 189.094C471.7 186.845 471.173 184.909 470.12 183.286C469.067 181.634 467.572 180.367 465.636 179.485C463.7 178.573 461.379 178.118 458.674 178.118H445.221V198.959ZM445.221 164.494H456.923C459.229 164.494 461.279 164.11 463.073 163.341C464.867 162.572 466.262 161.462 467.259 160.01C468.284 158.558 468.796 156.807 468.796 154.757C468.796 151.824 467.757 149.518 465.678 147.838C463.6 146.158 460.795 145.318 457.265 145.318H445.221V164.494Z" fill="#3E867A"/>
</svg>
